<?xml version="1.0" standalone="no"?>
<!DOCTYPE svg PUBLIC "-//W3C//DTD SVG 20010904//EN"
 "http://www.w3.org/TR/2001/REC-SVG-20010904/DTD/svg10.dtd">
<svg version="1.0" xmlns="http://www.w3.org/2000/svg"
 viewBox="564 533 2373 2373" preserveAspectRatio="xMidYMid meet"
 role="img" aria-label="InPress">

<g transform="translate(0.000000,3464.000000) scale(0.100000,-0.100000)"
fill="#000000" stroke="none">
<path d="M24765 27175 c-127 -17 -321 -72 -489 -140 -234 -95 -594 -289 -798
-432 -26 -18 -50 -33 -53 -33 -4 0 -26 -15 -50 -32 -25 -18 -68 -50 -97 -71
-29 -21 -76 -54 -105 -75 -28 -20 -61 -44 -73 -52 -94 -64 -500 -385 -570
-450 -8 -8 -40 -35 -70 -60 -30 -24 -78 -65 -105 -90 -28 -25 -69 -61 -90 -80
-232 -204 -536 -493 -948 -902 -206 -206 -306 -298 -326 -303 -31 -7 -116 6
-201 30 -160 46 -510 135 -645 164 -55 12 -129 28 -165 36 -77 17 -230 47
-355 70 -49 9 -121 23 -160 30 -119 24 -438 67 -665 91 -177 18 -312 30 -550
46 -249 17 -1317 17 -1470 0 -58 -7 -170 -17 -250 -22 -172 -12 -395 -35 -540
-55 -58 -8 -136 -19 -175 -25 -174 -24 -283 -41 -325 -50 -25 -6 -108 -22
-185 -36 -181 -33 -288 -55 -490 -104 -49 -12 -128 -30 -175 -41 -140 -34
-294 -75 -507 -139 -97 -28 -180 -30 -220 -5 -17 11 -137 124 -265 250 -460
452 -837 802 -1078 1004 -69 56 -138 115 -155 130 -16 15 -64 54 -105 86 -41
33 -79 65 -85 71 -13 15 -261 205 -355 273 -145 105 -411 285 -570 386 -126
80 -490 269 -618 322 -184 75 -426 138 -591 154 -191 18 -355 -11 -520 -91
-207 -101 -435 -378 -596 -725 -69 -148 -81 -175 -123 -290 -144 -394 -234
-740 -328 -1255 -8 -47 -21 -119 -29 -160 -19 -99 -68 -410 -80 -510 -3 -25
-12 -94 -19 -155 -20 -148 -42 -340 -60 -515 -9 -80 -20 -190 -26 -245 -12
-112 -36 -378 -50 -560 -32 -412 -69 -829 -80 -910 -5 -38 -12 -97 -15 -130
-10 -95 -40 -249 -87 -445 -43 -181 -68 -248 -230 -625 -265 -612 -423 -1027
-613 -1605 -117 -356 -168 -544 -310 -1145 -47 -197 -127 -642 -164 -910 -12
-82 -26 -181 -31 -220 -66 -474 -100 -1168 -81 -1644 39 -971 207 -1798 530
-2604 64 -159 211 -471 277 -587 17 -30 42 -75 56 -100 242 -439 588 -905 942
-1270 67 -69 162 -162 211 -206 251 -228 255 -232 500 -426 152 -121 465 -336
633 -434 46 -27 94 -56 107 -64 105 -68 242 -141 530 -284 293 -145 344 -168
475 -221 36 -14 74 -30 85 -35 11 -5 45 -19 75 -30 60 -24 144 -58 175 -71 62
-28 466 -163 625 -210 41 -12 113 -35 160 -50 47 -15 121 -37 165 -49 44 -12
100 -28 125 -35 25 -8 149 -39 275 -70 300 -73 343 -83 385 -90 33 -6 71 -14
223 -50 34 -8 116 -24 182 -35 66 -12 154 -27 195 -35 111 -21 291 -51 415
-70 61 -8 153 -22 205 -30 52 -8 120 -17 150 -20 56 -6 212 -25 375 -45 424
-54 1187 -110 1770 -130 889 -32 1932 -16 2675 40 628 48 1303 116 1440 145
14 3 77 12 140 20 195 24 498 73 740 120 41 8 100 19 130 25 95 16 422 87 535
115 33 9 80 19 105 24 95 19 494 126 715 193 154 46 292 89 320 99 17 6 50 17
75 24 61 19 141 47 225 79 39 15 93 36 120 46 28 10 80 30 118 44 37 14 97 37
135 51 37 14 81 32 97 39 17 8 50 23 75 34 233 104 507 236 630 304 85 46 362
203 403 228 23 14 57 34 75 45 114 69 413 272 507 344 33 26 70 53 81 61 34
24 130 97 145 112 8 7 39 33 69 58 30 25 72 62 95 83 22 20 59 52 82 70 52 40
425 415 520 522 268 303 591 764 767 1095 290 545 468 1000 610 1565 64 256
66 264 146 725 42 237 80 705 87 1060 6 303 -8 799 -28 1015 -25 272 -30 319
-49 470 -28 227 -76 551 -100 680 -11 61 -25 133 -30 160 -5 28 -19 93 -30
145 -12 52 -29 133 -39 180 -58 267 -171 708 -216 845 -7 22 -45 141 -85 265
-127 399 -169 519 -268 765 -33 83 -85 213 -115 290 -30 77 -87 214 -127 305
-328 750 -358 827 -400 1005 -11 50 -25 108 -30 130 -53 220 -83 459 -135
1075 -8 102 -22 250 -30 330 -8 80 -17 177 -20 215 -3 39 -12 126 -20 195 -7
69 -21 195 -30 280 -31 294 -61 518 -100 755 -8 44 -17 105 -20 135 -12 101
-96 576 -125 710 -63 292 -87 392 -135 555 -15 50 -33 110 -40 135 -73 252
-120 376 -232 609 -127 266 -225 415 -369 558 -163 162 -305 237 -516 268
-114 17 -167 17 -303 0z m-2292 -8084 c130 -63 237 -214 341 -481 73 -186 76
-195 126 -385 72 -270 107 -488 157 -960 32 -310 18 -1034 -27 -1350 -5 -38
-15 -104 -20 -145 -23 -167 -32 -219 -51 -305 -74 -347 -138 -560 -215 -720
-86 -179 -176 -292 -276 -346 -55 -30 -72 -34 -133 -33 -153 0 -274 110 -400
362 -84 169 -139 334 -195 587 -22 99 -44 200 -50 225 -21 96 -68 469 -84 680
-38 479 -19 1079 50 1565 33 236 95 516 155 697 112 343 241 543 393 614 66
31 159 29 229 -5z m-9717 -28 c144 -48 227 -158 379 -498 37 -85 112 -341 144
-498 55 -264 85 -452 100 -627 6 -63 16 -164 22 -225 19 -178 16 -872 -5
-1100 -42 -467 -91 -755 -181 -1063 -111 -384 -265 -641 -423 -709 -55 -24
-166 -23 -222 3 -128 59 -261 243 -354 489 -34 90 -45 123 -85 265 -40 139
-49 175 -70 275 -12 55 -26 120 -31 145 -12 53 -35 223 -50 365 -6 55 -15 135
-20 179 -6 43 -15 207 -21 365 -23 568 19 1122 121 1611 12 60 72 289 90 343
98 307 169 454 280 581 25 29 105 83 150 104 37 16 120 14 176 -5z"/>
</g>
</svg>
